# xmcd
#
# Track frame offsets:
#	150
#	20454
#	38194
#	55065
#	73349
#	93048
#	109280
#	127037
#	144501
#	162582
#	182879
#	198518
#	217066
#	235045
#	254037
#	283364
#
# Disc length: 3784 seconds
#
# Revision: 1
# Processed by: cddbd v1.5.1PL2 Copyright (c) Steve Scherf et al.
# Submitted via: audiograbber 1.83.01
#
DISCID=000ec610
DTITLE=All Star Karaoke - ASK39 1
DYEAR=1900
DGENRE=Karaoke Country
TTITLE0=Alan Jackson - Remember When
TTITLE1=Alan Jackson and Jimmy Buffet - Five O'Clock Somewhere
TTITLE2=Brad Paisley - Celebrity
TTITLE3=Brad Paisley - I Wish You'd Stay
TTITLE4=Brooks and Dunn - Red Dirt Road
TTITLE5=Brooks and Dunn - You Can't Take The Honky Tonk Out Of The Girl
TTITLE6=Buddy Jewel - Help Pour Out The Rain
TTITLE7=Craig Morgan - Every Friday Afternoon
TTITLE8=Darryl Worley - Have You Forgotten?
TTITLE9=Gary Allan - Songs About Rain
TTITLE10=George Strait - Tell Me Something Bad About Tulsa
TTITLE11=George Strait - Desperately
TTITLE12=Jeff Bates - The Love Song
TTITLE13=Josh Turner - Long Black Train
TTITLE14=Kenny Chesney - Big Star
TTITLE15=Data Track - Data Track
EXTD=
EXTT0=
EXTT1=
EXTT2=
EXTT3=
EXTT4=
EXTT5=
EXTT6=
EXTT7=
EXTT8=
EXTT9=
EXTT10=
EXTT11=
EXTT12=
EXTT13=
EXTT14=
EXTT15=
PLAYORDER=
